<?xml version="1.0" encoding="UTF-8"?>
<svg xmlns="http://www.w3.org/2000/svg" width="480" height="96" viewBox="0 0 480 96" fill="none">
  <defs>
    <linearGradient id="accent" x1="0" y1="0" x2="1" y2="1">
      <stop offset="0%" stop-color="#2dd4bf"/>
      <stop offset="100%" stop-color="#0d9488"/>
    </linearGradient>
  </defs>
  <g transform="translate(8, 24)">
    <rect width="18" height="18" rx="3" fill="url(#accent)" opacity="0.95"/>
    <rect x="24" width="18" height="18" rx="3" fill="url(#accent)" opacity="0.55"/>
    <rect y="24" width="18" height="18" rx="3" fill="url(#accent)" opacity="0.55"/>
    <rect x="24" y="24" width="18" height="18" rx="3" fill="url(#accent)" opacity="0.35"/>
  </g>
  <g transform="translate(64, 12)">
    <path fill="url(#accent)" d="M40 6c0-10-8-18-18-18S4-4 4 6v26c0 3 2 6 6 6h60c4 0 6-3 6-6V6zm-6 58c2 6 8 10 18 10s16-4 18-10H34z"/>
    <circle cx="40" cy="10" r="5" fill="#ccfbf1" opacity="0.45"/>
  </g>
  <text x="156" y="58" font-family="system-ui,Segoe UI,Ubuntu,sans-serif" font-size="42" font-weight="700" fill="#f0fdfa" letter-spacing="-0.5">Bellapps</text>
</svg>
